<svg width="20" height="20" viewBox="0 0 20 20" fill="none" xmlns="http://www.w3.org/2000/svg">
<path d="M17.9548 5.36607C17.7204 5.13173 17.4025 5.00008 17.0711 5.00008C16.7396 5.00008 16.4217 5.13173 16.1873 5.36607L9.99982 11.5536L3.81232 5.36607C3.57656 5.13837 3.26081 5.01238 2.93307 5.01523C2.60532 5.01807 2.2918 5.14953 2.06004 5.38129C1.82828 5.61305 1.69682 5.92657 1.69398 6.25432C1.69113 6.58206 1.81712 6.89781 2.04482 7.13357L9.11607 14.2048C9.35048 14.4392 9.66836 14.5708 9.99982 14.5708C10.3313 14.5708 10.6492 14.4392 10.8836 14.2048L17.9548 7.13357C18.1892 6.89916 18.3208 6.58127 18.3208 6.24982C18.3208 5.91836 18.1892 5.60048 17.9548 5.36607Z" fill="#5B9B15"/>
</svg>
