<svg width="20" height="20" viewBox="0 0 20 20" fill="none" xmlns="http://www.w3.org/2000/svg">
<path d="M5.79527 2.36598C5.56093 2.60039 5.42928 2.91828 5.42928 3.24973C5.42928 3.58119 5.56093 3.89907 5.79527 4.13348L11.9828 10.321L5.79527 16.5085C5.56757 16.7442 5.44158 17.06 5.44442 17.3877C5.44727 17.7155 5.57873 18.029 5.81049 18.2608C6.04225 18.4925 6.35577 18.624 6.68352 18.6268C7.01126 18.6297 7.32701 18.5037 7.56277 18.276L14.634 11.2047C14.8684 10.9703 15 10.6524 15 10.321C15 9.98953 14.8684 9.67164 14.634 9.43723L7.56277 2.36598C7.32836 2.13164 7.01047 2 6.67902 2C6.34756 2 6.02968 2.13164 5.79527 2.36598Z" fill="#5B9B15"/>
</svg>
