<svg width="20" height="20" viewBox="0 0 20 20" fill="none" xmlns="http://www.w3.org/2000/svg">
<path d="M5.13462 10.1508V6.85318C5.14441 6.20498 5.28201 5.56508 5.53953 4.97015C5.79705 4.37522 6.16944 3.83696 6.63534 3.38619C7.10125 2.93543 7.65152 2.58103 8.25463 2.34329C8.85774 2.10556 9.50183 1.98917 10.15 2.00079C10.7982 1.98917 11.4423 2.10556 12.0454 2.34329C12.6485 2.58103 13.1988 2.93543 13.6647 3.38619C14.1306 3.83696 14.5029 4.37522 14.7605 4.97015C15.018 5.56508 15.1556 6.20498 15.1654 6.85318V10.1508M12.6577 16.7335C13.3228 16.7335 13.9606 16.4693 14.4309 15.999C14.9012 15.5287 15.1654 14.8909 15.1654 14.2258V11.4046M12.6577 16.7335C12.6577 17.1492 12.4926 17.5478 12.1986 17.8417C11.9047 18.1357 11.5061 18.3008 11.0904 18.3008H9.20961C8.79394 18.3008 8.39529 18.1357 8.10136 17.8417C7.80743 17.5478 7.64231 17.1492 7.64231 16.7335C7.64231 16.3178 7.80743 15.9192 8.10136 15.6252C8.39529 15.3313 8.79394 15.1662 9.20961 15.1662H11.0904C11.5061 15.1662 11.9047 15.3313 12.1986 15.6252C12.4926 15.9192 12.6577 16.3178 12.6577 16.7335ZM3.25385 8.27002H4.50769C4.67396 8.27002 4.83342 8.33607 4.95099 8.45364C5.06856 8.57121 5.13462 8.73067 5.13462 8.89694V12.6585C5.13462 12.8248 5.06856 12.9842 4.95099 13.1018C4.83342 13.2194 4.67396 13.2854 4.50769 13.2854H3.25385C2.92131 13.2854 2.60238 13.1533 2.36724 12.9182C2.1321 12.683 2 12.3641 2 12.0316V9.52387C2 9.19133 2.1321 8.87241 2.36724 8.63727C2.60238 8.40212 2.92131 8.27002 3.25385 8.27002ZM17.0462 13.2854H15.7923C15.626 13.2854 15.4666 13.2194 15.349 13.1018C15.2314 12.9842 15.1654 12.8248 15.1654 12.6585V8.89694C15.1654 8.73067 15.2314 8.57121 15.349 8.45364C15.4666 8.33607 15.626 8.27002 15.7923 8.27002H17.0462C17.3787 8.27002 17.6976 8.40212 17.9328 8.63727C18.1679 8.87241 18.3 9.19133 18.3 9.52387V12.0316C18.3 12.3641 18.1679 12.683 17.9328 12.9182C17.6976 13.1533 17.3787 13.2854 17.0462 13.2854Z" stroke="#5B9B15" stroke-width="1.5" stroke-linecap="round" stroke-linejoin="round"/>
</svg>
