<svg width="20" height="20" viewBox="0 0 20 20" fill="none" xmlns="http://www.w3.org/2000/svg">
<path d="M11.9994 5.49979C11.9994 5.63239 11.9467 5.75956 11.853 5.85332C11.7592 5.94709 11.632 5.99976 11.4994 5.99976C11.3668 5.99976 11.2397 5.94709 11.1459 5.85332C11.0521 5.75956 10.9995 5.63239 10.9995 5.49979C10.9995 5.36719 11.0521 5.24002 11.1459 5.14626C11.2397 5.05249 11.3668 4.99982 11.4994 4.99982C11.632 4.99982 11.7592 5.05249 11.853 5.14626C11.9467 5.24002 11.9994 5.36719 11.9994 5.49979ZM11.9994 6.9997V9.99954H12.9993V10.9995H10.9995V7.99965H9.99951V6.9997H11.9994Z" fill="#5B9B15"/>
<path d="M16.8543 16.1462C16.7925 16.0704 16.7395 15.9879 16.6963 15.9002C16.5613 15.6194 16.4939 15.3108 16.4993 14.9993C16.4993 14.5853 16.6023 14.2863 16.6963 14.0983C16.7395 14.0106 16.7925 13.9281 16.8543 13.8523L16.8573 13.8473C16.9481 13.7542 16.999 13.6294 16.9993 13.4994V2.49997C16.9993 2.36737 16.9466 2.2402 16.8528 2.14644C16.7591 2.05268 16.6319 2 16.4993 2H6.46086L6.37787 2.005C5.99487 2.03288 5.62078 2.13404 5.27593 2.30298C4.92099 2.47605 4.6176 2.73911 4.39598 3.06594C4.14799 3.43992 4 3.91289 4 4.49986V14.9993C4 15.4622 4.11699 15.8422 4.31798 16.1442C4.51797 16.4422 4.77996 16.6352 5.02594 16.7592C5.31863 16.9051 5.63907 16.9869 5.96589 16.9992H5.99989V15.9992L5.97089 15.9972C5.79769 15.9866 5.62837 15.9413 5.47292 15.8642C5.34247 15.8033 5.23089 15.7083 5.14994 15.5892C5.06994 15.4692 4.99994 15.2863 4.99994 14.9993C4.99994 14.7123 5.06994 14.5293 5.14994 14.4093C5.23116 14.2901 5.34311 14.1951 5.47392 14.1343C5.63778 14.0528 5.81702 14.0068 5.99989 13.9993H15.6573C15.5664 14.2693 15.4994 14.6043 15.4994 14.9993C15.4994 15.3942 15.5664 15.7292 15.6573 15.9992H10.9996V16.9992H16.4993C16.5975 16.9992 16.6936 16.9702 16.7754 16.916C16.8573 16.8617 16.9214 16.7846 16.9597 16.6941C16.998 16.6037 17.0088 16.5039 16.9908 16.4074C16.9727 16.3108 16.9266 16.2217 16.8583 16.1512L16.8543 16.1462ZM5.7239 3.19693C5.81723 3.1516 5.90923 3.11494 5.99989 3.08694C5.99989 4.91784 6.00089 12.9994 5.99889 12.9994H5.96589C5.87097 13.0027 5.7764 13.0127 5.68291 13.0294C5.45461 13.066 5.23313 13.1368 5.02594 13.2394L4.99994 13.2534V4.49986C4.99994 4.08688 5.10194 3.8109 5.22893 3.62091C5.35692 3.42792 5.53291 3.29293 5.7239 3.19693ZM6.99983 12.9994V2.99994H15.9993V12.9994H6.99983Z" fill="#5B9B15"/>
<path d="M16.8543 16.1462C16.7925 16.0704 16.7395 15.9879 16.6963 15.9002C16.5613 15.6194 16.4939 15.3108 16.4993 14.9993C16.4993 14.5853 16.6023 14.2863 16.6963 14.0983C16.7395 14.0106 16.7925 13.9281 16.8543 13.8523L16.8573 13.8473C16.9481 13.7542 16.999 13.6294 16.9993 13.4994V2.49997C16.9993 2.36737 16.9466 2.2402 16.8528 2.14644C16.7591 2.05268 16.6319 2 16.4993 2H6.46086L6.37787 2.005C5.99487 2.03288 5.62078 2.13404 5.27593 2.30298C4.92099 2.47605 4.6176 2.73911 4.39598 3.06594C4.14799 3.43992 4 3.91289 4 4.49986V14.9993C4 15.4622 4.11699 15.8422 4.31798 16.1442C4.51797 16.4422 4.77996 16.6352 5.02594 16.7592C5.31863 16.9051 5.63907 16.9869 5.96589 16.9992H5.99989V15.9992L5.97089 15.9972C5.79769 15.9866 5.62837 15.9413 5.47292 15.8642C5.34247 15.8033 5.23089 15.7083 5.14994 15.5892C5.06994 15.4692 4.99994 15.2863 4.99994 14.9993C4.99994 14.7123 5.06994 14.5293 5.14994 14.4093C5.23116 14.2901 5.34311 14.1951 5.47392 14.1343C5.63778 14.0528 5.81702 14.0068 5.99989 13.9993H15.6573C15.5664 14.2693 15.4994 14.6043 15.4994 14.9993C15.4994 15.3943 15.5664 15.7292 15.6573 15.9992H10.9996V16.9992H16.4993C16.5975 16.9992 16.6936 16.9702 16.7754 16.916C16.8573 16.8617 16.9214 16.7846 16.9597 16.6941C16.998 16.6037 17.0088 16.5039 16.9908 16.4074C16.9727 16.3108 16.9266 16.2217 16.8583 16.1512L16.8543 16.1462ZM16.8543 16.1462L16.8553 16.1482M5.7239 3.19693C5.81723 3.1516 5.90923 3.11494 5.99989 3.08694C5.99989 4.91784 6.00089 12.9994 5.99889 12.9994H5.96589C5.87097 13.0027 5.7764 13.0127 5.68291 13.0294C5.45461 13.066 5.23313 13.1367 5.02594 13.2394L4.99994 13.2534V4.49986C4.99994 4.08688 5.10194 3.8109 5.22893 3.62091C5.35692 3.42792 5.53291 3.29293 5.7239 3.19693ZM6.99983 12.9994V2.99994H15.9993V12.9994H6.99983Z" stroke="#5B9B15" stroke-width="0.2"/>
<path d="M9.99983 14.9993H7V17.4991C6.99982 17.5981 7.02905 17.695 7.08398 17.7774C7.1389 17.8598 7.21705 17.924 7.30852 17.9619C7.39999 17.9998 7.50066 18.0097 7.59776 17.9903C7.69486 17.971 7.78403 17.9232 7.85395 17.8531L8.49992 17.2061L9.14588 17.8531C9.21581 17.9232 9.30497 17.971 9.40208 17.9903C9.49918 18.0097 9.59985 17.9998 9.69131 17.9619C9.78278 17.924 9.86093 17.8598 9.91586 17.7774C9.97078 17.695 10 17.5981 9.99983 17.4991V14.9993Z" fill="#5B9B15"/>
</svg>
