<svg width="20" height="20" viewBox="0 0 20 20" fill="none" xmlns="http://www.w3.org/2000/svg">
<path d="M9.95571 17.4306H3.38108C3.1474 17.4306 2.9233 17.3378 2.75806 17.1726C2.59283 17.0073 2.5 16.7832 2.5 16.5496V6.85767C2.5 5.92296 2.87131 5.02653 3.53225 4.36559C4.19319 3.70465 5.08962 3.33334 6.02432 3.33334H14.8351C15.7698 3.33334 16.6663 3.70465 17.3272 4.36559C17.9881 5.02653 18.3595 5.92296 18.3595 6.85767V9.84013M6.02432 12.1442H8.66757M6.02432 8.61983H11.3108" stroke="#5B9B15" stroke-width="1.5" stroke-linecap="round" stroke-linejoin="round"/>
<path d="M14.3946 15.6685C15.6111 15.6685 16.5973 14.6823 16.5973 13.4658C16.5973 12.2492 15.6111 11.2631 14.3946 11.2631C13.1781 11.2631 12.1919 12.2492 12.1919 13.4658C12.1919 14.6823 13.1781 15.6685 14.3946 15.6685Z" stroke="#5B9B15" stroke-width="1.5"/>
<path d="M16.1567 15.2279L18.8 17.8712" stroke="#5B9B15" stroke-width="2" stroke-linecap="round"/>
</svg>
