<svg width="20" height="20" viewBox="0 0 20 20" fill="none" xmlns="http://www.w3.org/2000/svg">
<path d="M6.117 14.539C6.335 14.539 6.51767 14.465 6.665 14.317C6.81167 14.1697 6.885 13.9867 6.885 13.768C6.885 13.5493 6.811 13.3667 6.663 13.22C6.515 13.0733 6.332 13 6.114 13C5.896 13 5.71333 13.074 5.566 13.222C5.41867 13.37 5.34533 13.553 5.346 13.771C5.34667 13.989 5.42067 14.1713 5.568 14.318C5.71533 14.4647 5.89833 14.539 6.117 14.539ZM6.117 10.769C6.335 10.769 6.51767 10.6953 6.665 10.548C6.81167 10.4 6.885 10.2167 6.885 9.998C6.885 9.77933 6.811 9.597 6.663 9.451C6.515 9.305 6.332 9.23167 6.114 9.231C5.896 9.23033 5.71333 9.304 5.566 9.452C5.41867 9.6 5.34533 9.78333 5.346 10.002C5.34667 10.2207 5.42067 10.403 5.568 10.549C5.71533 10.695 5.89833 10.7683 6.117 10.769ZM6.117 7C6.335 7 6.51767 6.92633 6.665 6.779C6.81167 6.631 6.885 6.44767 6.885 6.229C6.885 6.01033 6.811 5.828 6.663 5.682C6.515 5.536 6.332 5.46267 6.114 5.462C5.896 5.46133 5.71333 5.535 5.566 5.683C5.41933 5.831 5.346 6.014 5.346 6.232C5.346 6.45 5.42 6.63267 5.568 6.78C5.716 6.92733 5.899 7.00067 6.117 7ZM9.692 14.27H14.077C14.219 14.27 14.3377 14.2217 14.433 14.125C14.5283 14.0283 14.5763 13.9097 14.577 13.769C14.5777 13.6283 14.5297 13.5097 14.433 13.413C14.3363 13.3163 14.2177 13.2683 14.077 13.269H9.692C9.55067 13.269 9.432 13.317 9.336 13.413C9.24 13.509 9.192 13.628 9.192 13.77C9.192 13.912 9.24 14.0307 9.336 14.126C9.432 14.2213 9.55067 14.269 9.692 14.269M9.692 10.5H14.077C14.219 10.5 14.3377 10.452 14.433 10.356C14.5283 10.26 14.5763 10.141 14.577 9.999C14.5777 9.857 14.5297 9.73833 14.433 9.643C14.3363 9.54767 14.2177 9.5 14.077 9.5H9.692C9.55067 9.5 9.432 9.548 9.336 9.644C9.24 9.74 9.192 9.859 9.192 10.001C9.192 10.143 9.24 10.2617 9.336 10.357C9.432 10.4523 9.55067 10.5 9.692 10.5ZM9.692 6.73H14.077C14.219 6.73 14.3377 6.68233 14.433 6.587C14.529 6.491 14.577 6.372 14.577 6.23C14.577 6.088 14.529 5.96933 14.433 5.874C14.337 5.77867 14.2183 5.731 14.077 5.731H9.692C9.55067 5.731 9.432 5.779 9.336 5.875C9.24 5.971 9.192 6.09 9.192 6.232C9.192 6.374 9.24 6.49267 9.336 6.588C9.432 6.68333 9.55067 6.731 9.692 6.731M3.616 18C3.15533 18 2.771 17.846 2.463 17.538C2.155 17.23 2.00067 16.8453 2 16.384V3.616C2 3.15533 2.15433 2.771 2.463 2.463C2.77167 2.155 3.156 2.00067 3.616 2H16.385C16.845 2 17.2293 2.15433 17.538 2.463C17.8467 2.77167 18.0007 3.156 18 3.616V16.385C18 16.845 17.846 17.2293 17.538 17.538C17.23 17.8467 16.8453 18.0007 16.384 18H3.616ZM3.616 17H16.385C16.5383 17 16.6793 16.936 16.808 16.808C16.9367 16.68 17.0007 16.5387 17 16.384V3.616C17 3.462 16.936 3.32067 16.808 3.192C16.68 3.06333 16.5387 2.99933 16.384 3H3.616C3.462 3 3.32067 3.064 3.192 3.192C3.06333 3.32 2.99933 3.46133 3 3.616V16.385C3 16.5383 3.064 16.6793 3.192 16.808C3.32 16.9367 3.461 17.0007 3.615 17" fill="#5B9B15"/>
<path d="M9.692 14.27H14.077C14.219 14.27 14.3377 14.2217 14.433 14.125C14.5283 14.0283 14.5763 13.9097 14.577 13.769C14.5777 13.6283 14.5297 13.5097 14.433 13.413C14.3363 13.3163 14.2177 13.2683 14.077 13.269H9.692C9.55067 13.269 9.432 13.317 9.336 13.413C9.24 13.509 9.192 13.628 9.192 13.77C9.192 13.912 9.24 14.0307 9.336 14.126C9.432 14.2213 9.55067 14.269 9.692 14.269M9.692 6.73H14.077C14.219 6.73 14.3377 6.68233 14.433 6.587C14.529 6.491 14.577 6.372 14.577 6.23C14.577 6.088 14.529 5.96933 14.433 5.874C14.337 5.77867 14.2183 5.731 14.077 5.731H9.692C9.55067 5.731 9.432 5.779 9.336 5.875C9.24 5.971 9.192 6.09 9.192 6.232C9.192 6.374 9.24 6.49267 9.336 6.588C9.432 6.68333 9.55067 6.731 9.692 6.731M3.616 17H16.385C16.5383 17 16.6793 16.936 16.808 16.808C16.9367 16.68 17.0007 16.5387 17 16.384V3.616C17 3.462 16.936 3.32067 16.808 3.192C16.68 3.06333 16.5387 2.99933 16.384 3H3.616C3.462 3 3.32067 3.064 3.192 3.192C3.06333 3.32 2.99933 3.46133 3 3.616V16.385C3 16.5383 3.064 16.6793 3.192 16.808C3.32 16.9367 3.461 17.0007 3.615 17M3 3V17M6.117 14.539C6.335 14.539 6.51767 14.465 6.665 14.317C6.81167 14.1697 6.885 13.9867 6.885 13.768C6.885 13.5493 6.811 13.3667 6.663 13.22C6.515 13.0733 6.332 13 6.114 13C5.896 13 5.71333 13.074 5.566 13.222C5.41867 13.37 5.34533 13.553 5.346 13.771C5.34667 13.989 5.42067 14.1713 5.568 14.318C5.71533 14.4647 5.89833 14.539 6.117 14.539ZM6.117 10.769C6.335 10.769 6.51767 10.6953 6.665 10.548C6.81167 10.4 6.885 10.2167 6.885 9.998C6.885 9.77933 6.811 9.597 6.663 9.451C6.515 9.305 6.332 9.23167 6.114 9.231C5.896 9.23033 5.71333 9.304 5.566 9.452C5.41867 9.6 5.34533 9.78333 5.346 10.002C5.34667 10.2207 5.42067 10.403 5.568 10.549C5.71533 10.695 5.89833 10.7683 6.117 10.769ZM6.117 7C6.335 7 6.51767 6.92633 6.665 6.779C6.81167 6.631 6.885 6.44767 6.885 6.229C6.885 6.01033 6.811 5.828 6.663 5.682C6.515 5.536 6.332 5.46267 6.114 5.462C5.896 5.46133 5.71333 5.535 5.566 5.683C5.41933 5.831 5.346 6.014 5.346 6.232C5.346 6.45 5.42 6.63267 5.568 6.78C5.716 6.92733 5.899 7.00067 6.117 7ZM9.692 10.5H14.077C14.219 10.5 14.3377 10.452 14.433 10.356C14.5283 10.26 14.5763 10.141 14.577 9.999C14.5777 9.857 14.5297 9.73833 14.433 9.643C14.3363 9.54767 14.2177 9.5 14.077 9.5H9.692C9.55067 9.5 9.432 9.548 9.336 9.644C9.24 9.74 9.192 9.859 9.192 10.001C9.192 10.143 9.24 10.2617 9.336 10.357C9.432 10.4523 9.55067 10.5 9.692 10.5ZM3.616 18C3.15533 18 2.771 17.846 2.463 17.538C2.155 17.23 2.00067 16.8453 2 16.384V3.616C2 3.15533 2.15433 2.771 2.463 2.463C2.77167 2.155 3.156 2.00067 3.616 2H16.385C16.845 2 17.2293 2.15433 17.538 2.463C17.8467 2.77167 18.0007 3.156 18 3.616V16.385C18 16.845 17.846 17.2293 17.538 17.538C17.23 17.8467 16.8453 18.0007 16.384 18H3.616Z" stroke="#5B9B15" stroke-width="0.5"/>
</svg>
