<svg width="24" height="24" viewBox="0 0 24 24" fill="none" xmlns="http://www.w3.org/2000/svg">
<circle cx="12" cy="12" r="9" fill="#5B9B15"/>
<path d="M9.96635 14.5813L16.3226 8.225C16.4726 8.075 16.6476 8 16.8476 8C17.0476 8 17.2226 8.075 17.3726 8.225C17.5226 8.375 17.5976 8.55325 17.5976 8.75975C17.5976 8.96625 17.5226 9.14425 17.3726 9.29375L10.4913 16.1938C10.3413 16.3438 10.1663 16.4188 9.96635 16.4188C9.76635 16.4188 9.59135 16.3438 9.44135 16.1938L6.21635 12.9688C6.06635 12.8188 5.99435 12.6408 6.00035 12.4348C6.00635 12.2288 6.0846 12.0505 6.2351 11.9C6.3856 11.7495 6.56385 11.6745 6.76985 11.675C6.97585 11.6755 7.15385 11.7505 7.30385 11.9L9.96635 14.5813Z" fill="white"/>
</svg>
