<svg width="21" height="20" viewBox="0 0 21 20" fill="none" xmlns="http://www.w3.org/2000/svg">
<path d="M17.3571 11.1429H11.6429V16.8571C11.6429 17.1602 11.5224 17.4509 11.3081 17.6653C11.0938 17.8796 10.8031 18 10.5 18C10.1969 18 9.90621 17.8796 9.69188 17.6653C9.47755 17.4509 9.35714 17.1602 9.35714 16.8571V11.1429H3.64286C3.33975 11.1429 3.04906 11.0224 2.83474 10.8081C2.62041 10.5938 2.5 10.3031 2.5 10C2.5 9.6969 2.62041 9.40621 2.83474 9.19188C3.04906 8.97755 3.33975 8.85714 3.64286 8.85714H9.35714V3.14286C9.35714 2.83975 9.47755 2.54906 9.69188 2.33473C9.90621 2.12041 10.1969 2 10.5 2C10.8031 2 11.0938 2.12041 11.3081 2.33473C11.5224 2.54906 11.6429 2.83975 11.6429 3.14286V8.85714H17.3571C17.6602 8.85714 17.9509 8.97755 18.1653 9.19188C18.3796 9.40621 18.5 9.6969 18.5 10C18.5 10.3031 18.3796 10.5938 18.1653 10.8081C17.9509 11.0224 17.6602 11.1429 17.3571 11.1429Z" fill="white"/>
</svg>
