<svg width="20" height="20" viewBox="0 0 20 20" fill="none" xmlns="http://www.w3.org/2000/svg">
<path d="M16.8571 11.1429H11.1429V16.8571C11.1429 17.1602 11.0224 17.4509 10.8081 17.6653C10.5938 17.8796 10.3031 18 10 18C9.6969 18 9.40621 17.8796 9.19188 17.6653C8.97755 17.4509 8.85714 17.1602 8.85714 16.8571V11.1429H3.14286C2.83975 11.1429 2.54906 11.0224 2.33474 10.8081C2.12041 10.5938 2 10.3031 2 10C2 9.6969 2.12041 9.40621 2.33474 9.19188C2.54906 8.97755 2.83975 8.85714 3.14286 8.85714H8.85714V3.14286C8.85714 2.83975 8.97755 2.54906 9.19188 2.33473C9.40621 2.12041 9.6969 2 10 2C10.3031 2 10.5938 2.12041 10.8081 2.33473C11.0224 2.54906 11.1429 2.83975 11.1429 3.14286V8.85714H16.8571C17.1602 8.85714 17.4509 8.97755 17.6653 9.19188C17.8796 9.40621 18 9.6969 18 10C18 10.3031 17.8796 10.5938 17.6653 10.8081C17.4509 11.0224 17.1602 11.1429 16.8571 11.1429Z" fill="#5B9B15"/>
</svg>
