<svg width="20" height="20" viewBox="0 0 20 20" fill="none" xmlns="http://www.w3.org/2000/svg">
<path d="M3.81111 18.3C3.31306 18.3 2.88684 18.1228 2.53247 17.7684C2.1781 17.4141 2.00061 16.9875 2 16.4889V13.7722C2 13.5156 2.08694 13.3007 2.2608 13.1275C2.43467 12.9542 2.64959 12.8673 2.90556 12.8667C3.16153 12.8661 3.37675 12.953 3.55122 13.1275C3.72569 13.3019 3.81232 13.5169 3.81111 13.7722V16.4889H16.4889V3.81111H3.81111V6.52778C3.81111 6.78435 3.72418 6.99957 3.55031 7.17344C3.37645 7.3473 3.16153 7.43393 2.90556 7.43333C2.64959 7.43273 2.43467 7.34579 2.2608 7.17253C2.08694 6.99927 2 6.78435 2 6.52778V3.81111C2 3.31306 2.17749 2.88684 2.53247 2.53247C2.88745 2.17809 3.31366 2.0006 3.81111 2H16.4889C16.9869 2 17.4135 2.17749 17.7684 2.53247C18.1234 2.88744 18.3006 3.31366 18.3 3.81111V16.4889C18.3 16.9869 18.1228 17.4135 17.7684 17.7684C17.4141 18.1234 16.9875 18.3006 16.4889 18.3H3.81111ZM9.83306 11.0556H2.90556C2.64898 11.0556 2.43407 10.9686 2.2608 10.7948C2.08754 10.6209 2.00061 10.406 2 10.15C1.9994 9.89403 2.08633 9.67911 2.2608 9.50524C2.43527 9.33138 2.65019 9.24444 2.90556 9.24444H9.83306L8.15778 7.56916C7.97667 7.38805 7.88973 7.17676 7.89698 6.93528C7.90422 6.69379 7.99116 6.4825 8.15778 6.30139C8.33889 6.12028 8.55411 6.0261 8.80344 6.01885C9.05277 6.01161 9.26769 6.09824 9.4482 6.27875L12.6856 9.51611C12.7761 9.60666 12.8404 9.70477 12.8784 9.81041C12.9165 9.91606 12.9352 10.0293 12.9346 10.15C12.934 10.2707 12.9153 10.3839 12.8784 10.4896C12.8416 10.5952 12.7773 10.6933 12.6856 10.7839L9.4482 14.0212C9.26708 14.2024 9.05217 14.2893 8.80344 14.282C8.55471 14.2748 8.33949 14.1803 8.15778 13.9986C7.99176 13.8175 7.90483 13.6062 7.89698 13.3647C7.88913 13.1232 7.97606 12.9119 8.15778 12.7308L9.83306 11.0556Z" fill="#5B9B15"/>
</svg>
