<svg width="20" height="20" viewBox="0 0 20 20" fill="none" xmlns="http://www.w3.org/2000/svg">
<g clip-path="url(#clip0_140_1344)">
<path d="M13.0665 12.1557C15.9749 12.1557 18.3332 9.80734 18.3332 6.91067C18.3332 4.014 15.9749 1.6665 13.0665 1.6665C10.1582 1.6665 7.80236 4.01484 7.80236 6.91067C7.80236 8.25234 8.41403 9.22817 8.41403 9.22817L2.0457 15.5698C1.75986 15.8548 1.35986 16.5948 2.0457 17.2782L2.7807 18.0098C3.06653 18.254 3.78486 18.5957 4.37236 18.0098L5.2307 17.1565C6.08736 18.0098 7.06736 17.5223 7.43486 17.034C8.04653 16.1807 7.31236 15.3265 7.31236 15.3265L7.55736 15.0823C8.73236 16.254 9.76153 15.5707 10.129 15.0823C10.7415 14.229 10.129 13.3748 10.129 13.3748C9.88403 12.8873 9.39403 12.8873 10.0065 12.2773L10.7415 11.5457C11.329 12.0332 12.5374 12.1557 13.0682 12.1557H13.0665Z" stroke="#5B9B15" stroke-width="1.5" stroke-linejoin="round"/>
<path d="M14.9038 6.91155C14.9027 7.39763 14.7086 7.86338 14.3642 8.20639C14.0198 8.54941 13.5532 8.7416 13.0671 8.74071C12.581 8.7416 12.1145 8.54941 11.7701 8.20639C11.4257 7.86338 11.2316 7.39763 11.2305 6.91155C11.2309 6.67079 11.2788 6.43248 11.3713 6.21021C11.4638 5.98795 11.5992 5.78609 11.7698 5.61616C11.9403 5.44623 12.1427 5.31155 12.3653 5.21982C12.5879 5.12809 12.8264 5.08111 13.0671 5.08155C13.3079 5.08111 13.5464 5.12809 13.769 5.21982C13.9916 5.31155 14.1939 5.44623 14.3645 5.61616C14.535 5.78609 14.6704 5.98795 14.763 6.21021C14.8555 6.43248 14.9034 6.67079 14.9038 6.91155Z" stroke="#5B9B15" stroke-width="1.5"/>
</g>
<defs>
<clipPath id="clip0_140_1344">
<rect width="20" height="20" fill="white"/>
</clipPath>
</defs>
</svg>
