<svg width="20" height="20" viewBox="0 0 20 20" fill="none" xmlns="http://www.w3.org/2000/svg">
<path d="M10.0004 6.88889C9.60248 6.88889 9.2209 7.02936 8.93955 7.27941C8.6582 7.52946 8.50015 7.8686 8.50015 8.22222V8.31733C8.50015 8.43521 8.44746 8.54825 8.35368 8.6316C8.2599 8.71495 8.1327 8.76178 8.00007 8.76178C7.86745 8.76178 7.74025 8.71495 7.64647 8.6316C7.55269 8.54825 7.5 8.43521 7.5 8.31733V8.22222C7.5 7.63285 7.76343 7.06762 8.23234 6.65087C8.70125 6.23413 9.33723 6 10.0004 6H10.1164C10.6034 6.00013 11.0786 6.13279 11.4782 6.38012C11.8779 6.62746 12.1827 6.97762 12.3517 7.38351C12.5208 7.78941 12.5459 8.23157 12.4238 8.65055C12.3017 9.06952 12.0381 9.44522 11.6686 9.72711L10.8975 10.3147C10.7731 10.4096 10.6733 10.5273 10.6048 10.6597C10.5363 10.7921 10.5007 10.9361 10.5004 11.0818V11.5556C10.5004 11.6734 10.4478 11.7865 10.354 11.8698C10.2602 11.9532 10.133 12 10.0004 12C9.86774 12 9.74054 11.9532 9.64676 11.8698C9.55298 11.7865 9.50029 11.6734 9.50029 11.5556V11.0818C9.50029 10.5271 9.77333 10.0009 10.2464 9.64L11.0165 9.05333C11.2313 8.8898 11.3845 8.67172 11.4556 8.42844C11.5267 8.18517 11.5123 7.92837 11.4143 7.69261C11.3162 7.45685 11.1393 7.25343 10.9072 7.10974C10.6752 6.96605 10.3992 6.88898 10.1164 6.88889H10.0004ZM10.0004 14C10.1993 14 10.3901 13.9298 10.5308 13.8047C10.6714 13.6797 10.7505 13.5101 10.7505 13.3333C10.7505 13.1565 10.6714 12.987 10.5308 12.8619C10.3901 12.7369 10.1993 12.6667 10.0004 12.6667C9.80142 12.6667 9.61063 12.7369 9.46996 12.8619C9.32929 12.987 9.25026 13.1565 9.25026 13.3333C9.25026 13.5101 9.32929 13.6797 9.46996 13.8047C9.61063 13.9298 9.80142 14 10.0004 14Z" fill="#5B9B15"/>
<path d="M2.00049 10C2.00049 7.87827 2.84334 5.84344 4.34363 4.34315C5.84393 2.84285 7.87876 2 10.0005 2C12.1222 2 14.1571 2.84285 15.6573 4.34315C17.1576 5.84344 18.0005 7.87827 18.0005 10C18.0005 12.1217 17.1576 14.1566 15.6573 15.6569C14.1571 17.1571 12.1222 18 10.0005 18C7.87876 18 5.84393 17.1571 4.34363 15.6569C2.84334 14.1566 2.00049 12.1217 2.00049 10ZM10.0005 2.94118C8.12837 2.94118 6.33293 3.68487 5.00915 5.00866C3.68536 6.33244 2.94166 8.12788 2.94166 10C2.94166 11.8721 3.68536 13.6676 5.00915 14.9913C6.33293 16.3151 8.12837 17.0588 10.0005 17.0588C11.8726 17.0588 13.668 16.3151 14.9918 14.9913C16.3156 13.6676 17.0593 11.8721 17.0593 10C17.0593 8.12788 16.3156 6.33244 14.9918 5.00866C13.668 3.68487 11.8726 2.94118 10.0005 2.94118Z" fill="#5B9B15"/>
</svg>
