<svg width="20" height="20" viewBox="0 0 20 20" fill="none" xmlns="http://www.w3.org/2000/svg">
<path fill-rule="evenodd" clip-rule="evenodd" d="M8.75021 1.6665C7.6207 1.6666 6.5076 1.93681 5.50376 2.45458C4.49992 2.97236 3.63446 3.72268 2.97957 4.64297C2.32469 5.56325 1.89939 6.62679 1.73913 7.74487C1.57888 8.86295 1.68834 10.0031 2.05836 11.0703C2.42838 12.1375 3.04825 13.1007 3.86624 13.8796C4.68423 14.6585 5.67663 15.2305 6.76064 15.5478C7.84465 15.8652 8.98883 15.9187 10.0977 15.7039C11.2066 15.4892 12.2481 15.0123 13.1352 14.3132L16.1785 17.3565C16.3357 17.5083 16.5462 17.5923 16.7647 17.5904C16.9832 17.5885 17.1922 17.5009 17.3467 17.3464C17.5012 17.1918 17.5889 16.9828 17.5908 16.7643C17.5927 16.5458 17.5087 16.3353 17.3569 16.1782L14.3135 13.1348C15.1369 12.0904 15.6495 10.8352 15.7928 9.51294C15.9361 8.19071 15.7042 6.85485 15.1237 5.65825C14.5433 4.46164 13.6376 3.45263 12.5105 2.7467C11.3833 2.04076 10.0802 1.66641 8.75021 1.6665ZM3.33354 8.74984C3.33354 7.31325 3.90423 5.9355 4.92005 4.91968C5.93587 3.90385 7.31362 3.33317 8.75021 3.33317C10.1868 3.33317 11.5646 3.90385 12.5804 4.91968C13.5962 5.9355 14.1669 7.31325 14.1669 8.74984C14.1669 10.1864 13.5962 11.5642 12.5804 12.58C11.5646 13.5958 10.1868 14.1665 8.75021 14.1665C7.31362 14.1665 5.93587 13.5958 4.92005 12.58C3.90423 11.5642 3.33354 10.1864 3.33354 8.74984Z" fill="#5B9B15"/>
</svg>
