<svg width="20" height="20" viewBox="0 0 20 20" fill="none" xmlns="http://www.w3.org/2000/svg">
<path d="M3.33317 16.6666C2.87484 16.6666 2.48262 16.5036 2.1565 16.1775C1.83039 15.8514 1.66706 15.4589 1.6665 15V4.99998C1.6665 4.54165 1.82984 4.14942 2.1565 3.82331C2.48317 3.4972 2.87539 3.33387 3.33317 3.33331H16.6665C17.1248 3.33331 17.5173 3.49665 17.844 3.82331C18.1707 4.14998 18.3337 4.5422 18.3332 4.99998V15C18.3332 15.4583 18.1701 15.8508 17.844 16.1775C17.5179 16.5041 17.1254 16.6672 16.6665 16.6666H3.33317ZM9.99984 10.6875C10.0693 10.6875 10.1423 10.6769 10.219 10.6558C10.2957 10.6347 10.3684 10.6036 10.4373 10.5625L16.3332 6.87498C16.4443 6.80554 16.5276 6.71887 16.5832 6.61498C16.6387 6.51109 16.6665 6.39637 16.6665 6.27081C16.6665 5.99304 16.5484 5.7847 16.3123 5.64581C16.0762 5.50692 15.8332 5.51387 15.5832 5.66665L9.99984 9.16665L4.4165 5.66665C4.1665 5.51387 3.92345 5.51054 3.68734 5.65665C3.45123 5.80276 3.33317 6.00748 3.33317 6.27081C3.33317 6.4097 3.36095 6.53137 3.4165 6.63581C3.47206 6.74026 3.55539 6.81998 3.6665 6.87498L9.56234 10.5625C9.63178 10.6041 9.70484 10.6355 9.7815 10.6566C9.85817 10.6778 9.93095 10.688 9.99984 10.6875Z" fill="#3D3D3D" fill-opacity="0.5"/>
</svg>
