<svg width="20" height="20" viewBox="0 0 20 20" fill="none" xmlns="http://www.w3.org/2000/svg">
<path d="M14.7061 1.66666V8.18648M17.966 4.92657H11.4462M2.07395 4.92657C2.07395 3.6715 2.07395 3.04397 2.35674 2.58269C2.51485 2.32434 2.73163 2.10756 2.98998 1.94945C3.45044 1.66666 4.07879 1.66666 5.33386 1.66666C6.58892 1.66666 7.21646 1.66666 7.67774 1.94945C7.93608 2.10756 8.15287 2.32434 8.31097 2.58269C8.59377 3.04315 8.59377 3.6715 8.59377 4.92657C8.59377 6.18163 8.59377 6.80917 8.31097 7.27044C8.15287 7.52879 7.93608 7.74558 7.67774 7.90368C7.21727 8.18648 6.58892 8.18648 5.33386 8.18648C4.07879 8.18648 3.45126 8.18648 2.98998 7.90368C2.73183 7.74561 2.51481 7.5286 2.35674 7.27044C2.07395 6.80998 2.07395 6.18163 2.07395 4.92657ZM3.11875 12.0837C3.97203 11.2304 4.39826 10.8042 4.90355 10.6819C5.1864 10.614 5.48132 10.614 5.76417 10.6819C6.26945 10.8042 6.69569 11.2304 7.54897 12.0837C8.40225 12.937 8.82848 13.3632 8.95073 13.8685C9.01748 14.1515 9.01748 14.4461 8.95073 14.7291C8.82848 15.2344 8.40225 15.6615 7.54897 16.5139C6.69569 17.3664 6.26945 17.7934 5.76417 17.9157C5.48132 17.9836 5.1864 17.9836 4.90355 17.9157C4.39826 17.7934 3.97203 17.3672 3.11875 16.5139C2.26547 15.6606 1.83923 15.2344 1.71699 14.7291C1.64903 14.4463 1.64903 14.1514 1.71699 13.8685C1.83923 13.3632 2.26547 12.9362 3.11875 12.0837ZM11.4462 14.7063C11.4462 13.4512 11.4462 12.8237 11.729 12.3624C11.8871 12.1041 12.1039 11.8873 12.3622 11.7292C12.8227 11.4464 13.451 11.4464 14.7061 11.4464C15.9612 11.4464 16.5887 11.4464 17.0508 11.7292C17.3083 11.8873 17.5251 12.1041 17.6832 12.3624C17.966 12.8229 17.966 13.4512 17.966 14.7063C17.966 15.9614 17.966 16.5889 17.6832 17.051C17.525 17.3086 17.3084 17.5252 17.0508 17.6834C16.5887 17.9662 15.9612 17.9662 14.7061 17.9662C13.451 17.9662 12.8235 17.9662 12.3622 17.6834C12.1042 17.5256 11.8872 17.3089 11.729 17.051C11.4462 16.5889 11.4462 15.9614 11.4462 14.7063Z" stroke="#5B9B15" stroke-width="1.5" stroke-linecap="round" stroke-linejoin="round"/>
</svg>
