<svg width="48" height="32" viewBox="0 0 48 32" fill="none" xmlns="http://www.w3.org/2000/svg">
<g clip-path="url(#clip0_103_110)">
<path d="M25.2455 0V19.4235C25.2455 26.3697 19.5946 32 12.6228 32C5.65093 32 0 26.3697 0 19.4235V0H25.2455Z" fill="#3769F5"/>
<path d="M18.7844 19.2167C18.7844 18.9132 18.6253 18.6956 18.4961 18.4805L16.8378 16.1679C16.1606 16.787 15.1089 16.7559 15.1089 16.7559C15.8663 17.5925 17.5162 18.7088 17.5162 18.7088C17.6849 18.8163 17.7423 18.9478 17.7435 19.194C17.7436 21.1542 17.3362 23.093 16.547 24.8877C15.9775 25.5737 15.7526 26.2358 15.7981 26.7808H16.9897C16.8785 25.4602 17.6777 24.7933 17.6777 24.7933C17.4276 24.1144 17.8476 23.0878 17.8476 23.0878C18.5021 21.5329 18.7844 20.6473 18.7844 19.2167Z" fill="white"/>
<path d="M21.4252 18.2726C21.4252 17.8208 21.2457 17.6941 21.0459 17.4145C20.6642 16.885 20.5362 16.5874 20.5326 15.6433V14.8258C20.5326 14.3107 20.7444 13.8123 21.0687 12.9136C21.4778 11.7853 21.1823 11.1579 20.3137 10.7946C21.3642 10.0906 21.1512 9.06759 21.1512 9.06759L11.5053 11.2416C11.1523 11.3308 10.7918 11.3872 10.4284 11.4101C9.97737 11.4101 9.90438 11.1878 9.90438 10.9045V6.1849C9.90438 5.77496 9.94985 5.38774 9.36358 4.95748C10.6797 4.95748 11.3186 3.94759 11.315 2.61261L9.99891 3.69661V2.61261L4.94621 5.65306C4.91767 5.66695 4.89255 5.68698 4.87266 5.71171C4.85278 5.73644 4.83861 5.76525 4.83118 5.79609C4.82375 5.82693 4.82323 5.85903 4.82967 5.89009C4.83612 5.92115 4.84935 5.9504 4.86844 5.97575L5.06227 6.27214C5.11753 6.33353 5.1859 6.38172 5.26232 6.41317C5.33874 6.44461 5.42125 6.4585 5.50377 6.4538H8.1707L6.89048 11.2631C6.89048 11.2631 6.38437 12.9638 6.38437 14.3107C6.38437 15.1999 6.7134 16.732 7.95533 16.732C8.86465 16.732 9.3911 16.1345 9.85772 15.4054C9.85772 15.4054 9.63279 19.4988 6.81869 24.8901C6.19174 25.5761 5.99671 26.237 5.99671 26.7808H7.17883C7.17021 26.408 7.24217 26.0376 7.38979 25.6951C7.53742 25.3525 7.75725 25.0457 8.0343 24.7957C7.86919 23.8969 8.39324 23.0759 8.39324 23.0759C9.35042 21.5353 10.2226 19.8024 10.7252 17.9535C10.7252 17.9535 10.9896 16.5839 12.1789 16.5839C13.8432 16.5839 15.2024 16.7416 17.2399 15.0708C17.4936 16.3018 18.6027 17.9451 19.8542 18.863C19.9499 18.9371 20.0276 19.0318 20.0816 19.14C20.1357 19.2482 20.1647 19.3671 20.1665 19.4881C20.1593 21.0549 20.2419 22.9253 19.5001 24.8877C18.9294 25.5749 18.7547 26.237 18.8013 26.7808H19.8865C19.8985 25.4231 20.5745 24.7945 20.5745 24.7945C20.3783 24.0153 20.6439 23.0723 20.6439 23.0723C20.9658 21.76 21.4252 20.5936 21.4252 18.2726Z" fill="white"/>
<path d="M8.35994 20.4609V19.3852C8.06233 19.393 7.77025 19.3039 7.5277 19.1315C7.28515 18.959 7.10525 18.7125 7.01511 18.4291C6.45037 18.2188 6.1704 17.6057 5.99811 17.1969C5.81026 16.7547 5.59848 15.8583 4.38766 14.8843L5.96102 14.7576C5.96102 14.7576 5.82103 13.8637 6.15484 13.333L4.26442 13.9306C3.90548 14.0501 3.66619 14.1433 3.46637 14.3979C3.23665 14.7158 3.34673 15.0743 3.55611 15.3038C6.29842 18.3168 6.58677 19.2836 6.58677 19.2836C6.73843 19.6289 6.98616 19.9233 7.30049 20.132C7.61483 20.3407 7.98255 20.4549 8.35994 20.4609Z" fill="white"/>
<path d="M32.9031 21.1326H31.8646V6.99161H30.8452L30.7315 18.3455C30.7315 19.2012 30.6693 19.8382 30.5425 20.2577C30.4156 20.6772 30.2601 20.9366 30.071 21.031C29.882 21.1254 29.5925 21.172 29.2024 21.172L28.938 21.1529V20.1729H29.0708C29.3476 20.1729 29.533 20.0629 29.6272 19.843C29.7213 19.6231 29.7747 19.0606 29.7875 18.1555L29.9358 6.04865H32.9031V21.1326Z" fill="#3769F5"/>
<path d="M36.7113 15.4389H35.7541L35.3952 21.1326H34.4141L35.4909 6.04865H36.9949L38.1088 21.1326H37.0702L36.7113 15.4389ZM36.655 14.4959L36.3727 9.98904L36.2794 7.38721H36.1848L36.0903 9.98904L35.8068 14.4959H36.655Z" fill="#3769F5"/>
<path d="M42.8838 6.04865V21.1326H41.8465V13.1944H40.6572V21.1326H39.6187V6.04865H40.6572V12.1905H41.8465V6.04865H42.8838Z" fill="#3769F5"/>
<path d="M47.5655 11.7614C47.8551 12.0762 47.9999 12.6295 47.9999 13.4215V18.9084C47.9999 19.7378 47.8551 20.3159 47.5655 20.6426C47.276 20.9692 46.8668 21.1326 46.338 21.1326H44.8472V6.04865H45.8857V11.2905H46.338C46.8668 11.2905 47.276 11.4475 47.5655 11.7614ZM46.9613 13.3856C46.9613 12.6192 46.7284 12.2359 46.2626 12.2359H45.8857V20.1932H46.2626C46.5266 20.1932 46.7093 20.1083 46.8106 19.9386C46.9119 19.7689 46.9621 19.4701 46.9613 19.0423V13.3856Z" fill="#3769F5"/>
</g>
<defs>
<clipPath id="clip0_103_110">
<rect width="48" height="32" fill="white"/>
</clipPath>
</defs>
</svg>
