<svg width="75" height="32" viewBox="0 0 75 32" fill="none" xmlns="http://www.w3.org/2000/svg">
<g clip-path="url(#clip0_103_93)">
<g clip-path="url(#clip1_103_93)">
<g clip-path="url(#clip2_103_93)">
<mask id="mask0_103_93" style="mask-type:luminance" maskUnits="userSpaceOnUse" x="1" y="2" width="74" height="28">
<path d="M74.931 2.75861H1V29.2414H74.931V2.75861Z" fill="white"/>
</mask>
<g mask="url(#mask0_103_93)">
<path d="M22.5801 24.1641C22.7446 24.023 22.9569 23.9488 23.1743 23.9567C23.3917 23.9644 23.598 24.0535 23.7518 24.2061C23.9056 24.3587 23.9955 24.5633 24.0034 24.779C24.0112 24.9946 23.9365 25.2052 23.7941 25.3683C21.2887 27.8487 17.8934 29.2417 14.3535 29.2417C10.8135 29.2417 7.41825 27.8487 4.91276 25.3683C3.67233 24.139 2.68831 22.6793 2.01693 21.0726C1.34556 19.4659 1 17.7438 1 16.0046C1 14.2653 1.34556 12.5431 2.01693 10.9365C2.68831 9.3298 3.67233 7.87007 4.91276 6.64076C6.15216 5.41044 7.62388 4.43444 9.24374 3.76854C10.8637 3.10263 12.5999 2.75989 14.3535 2.75989C16.107 2.75989 17.8433 3.10263 19.4632 3.76854C21.0831 4.43444 22.5547 5.41044 23.7941 6.64076C23.8836 6.7175 23.9561 6.81171 24.0073 6.91749C24.0584 7.02327 24.0869 7.13836 24.0912 7.25559C24.0955 7.37281 24.0754 7.48965 24.032 7.59882C23.9888 7.70798 23.9233 7.80713 23.8397 7.89007C23.7561 7.97301 23.6561 8.03798 23.546 8.0809C23.436 8.12383 23.3182 8.14379 23.2 8.13956C23.0818 8.13532 22.9657 8.10698 22.8591 8.05628C22.7524 8.00559 22.6575 7.93365 22.5801 7.84494C21.5011 6.77114 20.2189 5.91916 18.8072 5.33783C17.3955 4.7565 15.882 4.45726 14.3535 4.45726C12.8249 4.45726 11.3114 4.7565 9.89974 5.33783C8.48804 5.91916 7.20589 6.77114 6.12683 7.84494C5.04637 8.91639 4.1893 10.1885 3.60455 11.5885C3.01981 12.9886 2.71884 14.4891 2.71884 16.0046C2.71884 17.52 3.01981 19.0205 3.60455 20.4206C4.1893 21.8206 5.04637 23.0927 6.12683 24.1641C7.20711 25.2358 8.48964 26.0859 9.90118 26.6659C11.3127 27.2458 12.8256 27.5444 14.3535 27.5444C15.8813 27.5444 17.3943 27.2458 18.8058 26.6659C20.2173 26.0859 21.4999 25.2358 22.5801 24.1641Z" fill="#FF9900"/>
<path d="M17.8682 12.0594V19.9045H19.5624V17.3254H20.849C22.7606 17.3254 24.2646 16.7233 24.2646 14.6924C24.2646 12.6615 22.7425 12.0594 20.849 12.0594H17.8682ZM22.5342 14.6924C22.5342 15.591 21.8002 15.8517 20.9305 15.8517H19.5624V13.5421H20.9305C21.8365 13.5421 22.5342 13.7668 22.5342 14.6924ZM27.0642 19.9045V17.1367H28.3145L30.4437 19.8326H32.4007L30.0359 16.8761C30.546 16.757 30.9995 16.4683 31.321 16.0578C31.6425 15.6474 31.8125 15.1402 31.8027 14.6205C31.8027 12.6346 30.199 12.0594 28.6679 12.0594H25.4062V19.9045H27.0642ZM27.0642 13.5421H28.7222C29.438 13.5421 30.0541 13.8477 30.0541 14.6475C30.0541 15.4472 29.438 15.7618 28.7222 15.7618H27.0823V13.5421H27.0642ZM35.5083 14.1352C35.5083 16.912 39.83 16.3639 39.83 17.8376C39.83 18.3948 39.2683 18.5835 38.3532 18.5835C37.3584 18.5866 36.3847 18.299 35.5536 17.7568V19.3563C36.4532 19.8338 37.4598 20.078 38.48 20.0662C40.1381 20.0662 41.5605 19.5181 41.5605 17.7568C41.5605 14.962 37.2388 15.4652 37.2388 14.1173C37.2388 13.632 37.6646 13.3984 38.5253 13.3894C39.3913 13.3573 40.2449 13.5997 40.9625 14.0813V12.5087C40.1706 12.1025 39.29 11.8957 38.3985 11.9067C36.8401 11.9067 35.5083 12.6256 35.5083 14.1352ZM49.6875 12.0594L46.9695 16.1392L44.2514 12.0594H42.7202V19.9045H44.4145V15.0699L46.5073 18.2241H47.4859L49.5788 15.0788V19.9045H51.273V12.0594H49.6875ZM53.8823 19.9045L54.4532 18.4397H58.0773L58.6571 19.9045H60.4326L57.2166 12.0594H55.3591L52.1247 19.9045H53.8823ZM56.1021 14.2341C56.1865 14.0382 56.2472 13.8331 56.2831 13.623C56.3189 13.8311 56.3735 14.0357 56.4464 14.2341L57.5608 17.0469H55.0239L56.1202 14.2341H56.1021ZM62.9876 19.9045V17.1367H64.2384L66.3675 19.8326H68.3244L65.9598 16.8761C66.4756 16.7475 66.9302 16.445 67.2458 16.0204C67.562 15.5958 67.7186 15.0755 67.69 14.5486C67.69 12.5627 66.0866 11.9875 64.5462 11.9875H61.3115V19.8326L62.9876 19.9045ZM62.9876 13.5421H64.6279C65.3435 13.5421 65.9598 13.8477 65.9598 14.6475C65.9598 15.4472 65.3435 15.7618 64.6279 15.7618H63.0058V13.5421H62.9876ZM68.3697 12.0594V13.5421H70.7978V19.8326H72.4828V13.5421H74.9291V12.0594H68.3697Z" fill="#263238"/>
<path fill-rule="evenodd" clip-rule="evenodd" d="M14.3543 9.35455C14.5946 9.35455 14.825 9.44923 14.9949 9.61778C15.1648 9.78628 15.2603 10.0149 15.2603 10.2532V21.7467C15.2603 21.9851 15.1648 22.2136 14.9949 22.3821C14.825 22.5507 14.5946 22.6454 14.3543 22.6454C14.114 22.6454 13.8836 22.5507 13.7136 22.3821C13.5437 22.2136 13.4482 21.9851 13.4482 21.7467V10.2532C13.4482 10.0149 13.5437 9.78628 13.7136 9.61778C13.8836 9.44923 14.114 9.35455 14.3543 9.35455Z" fill="#263238"/>
</g>
</g>
</g>
</g>
<defs>
<clipPath id="clip0_103_93">
<rect width="73.931" height="26.4828" fill="white" transform="translate(1 2.75861)"/>
</clipPath>
<clipPath id="clip1_103_93">
<rect width="73.931" height="26.4828" fill="white" transform="translate(1 2.75861)"/>
</clipPath>
<clipPath id="clip2_103_93">
<rect width="73.931" height="26.4828" fill="white" transform="translate(1 2.75861)"/>
</clipPath>
</defs>
</svg>
