
<svg width="30" height="20" viewBox="0 0 30 20" fill="none" xmlns="http://www.w3.org/2000/svg">
<g clip-path="url(#clip0_116_2529)">
<path d="M15.7785 0V12.1397C15.7785 16.481 12.2466 20 7.88923 20C3.53183 20 0 16.481 0 12.1397V0H15.7785Z" fill="#3769F5"/>
<path d="M11.7406 12.0105C11.7406 11.8208 11.6411 11.6848 11.5604 11.5504L10.5239 10.105C10.1007 10.4919 9.44336 10.4725 9.44336 10.4725C9.91671 10.9954 10.9479 11.693 10.9479 11.693C11.0534 11.7603 11.0893 11.8424 11.09 11.9963C11.0901 13.2214 10.8354 14.4332 10.3422 15.5548C9.98626 15.9836 9.84567 16.3974 9.87409 16.738H10.6189C10.5493 15.9126 11.0489 15.4958 11.0489 15.4958C10.8926 15.0716 11.1551 14.4299 11.1551 14.4299C11.5641 13.4581 11.7406 12.9046 11.7406 12.0105Z" fill="white"/>
<path d="M13.3906 11.4203C13.3906 11.1379 13.2785 11.0588 13.1536 10.884C12.915 10.5531 12.835 10.3671 12.8328 9.77698V9.26605C12.8328 8.94411 12.9651 8.63263 13.1678 8.07091C13.4235 7.36577 13.2388 6.97362 12.6959 6.74654C13.3525 6.30658 13.2194 5.66717 13.2194 5.66717L7.19067 7.0259C6.97006 7.08167 6.74476 7.11693 6.51765 7.13123C6.23573 7.13123 6.19012 6.99229 6.19012 6.81526V3.86549C6.19012 3.60928 6.21853 3.36727 5.85212 3.09836C6.67469 3.09836 7.07401 2.46717 7.07177 1.63281L6.24919 2.31031V1.63281L3.09126 3.53309C3.07342 3.54178 3.05772 3.5543 3.04529 3.56975C3.03286 3.58521 3.02401 3.60321 3.01936 3.62249C3.01472 3.64176 3.0144 3.66182 3.01842 3.68124C3.02245 3.70065 3.03072 3.71893 3.04265 3.73477L3.1638 3.92002C3.19834 3.95839 3.24107 3.98851 3.28883 4.00816C3.33659 4.02781 3.38816 4.03649 3.43973 4.03356H5.10656L4.30643 7.03935C4.30643 7.03935 3.99011 8.10228 3.99011 8.94411C3.99011 9.49985 4.19575 10.4575 4.97196 10.4575C5.54028 10.4575 5.86931 10.084 6.16095 9.62833C6.16095 9.62833 6.02037 12.1867 4.26156 15.5562C3.86971 15.985 3.74782 16.3981 3.74782 16.7379H4.48664C4.48126 16.5049 4.52623 16.2734 4.6185 16.0593C4.71077 15.8452 4.84816 15.6535 5.02132 15.4972C4.91812 14.9355 5.24565 14.4224 5.24565 14.4224C5.84389 13.4595 6.38903 12.3764 6.7031 11.2209C6.7031 11.2209 6.86837 10.3648 7.61167 10.3648C8.65186 10.3648 9.50135 10.4634 10.7748 9.41918C10.9334 10.1886 11.6266 11.2156 12.4088 11.7893C12.4685 11.8356 12.5171 11.8948 12.5509 11.9624C12.5847 12.0301 12.6028 12.1044 12.6039 12.18C12.5995 13.1592 12.6511 14.3282 12.1874 15.5548C11.8307 15.9843 11.7215 16.3981 11.7507 16.7379H12.429C12.4364 15.8894 12.8589 15.4965 12.8589 15.4965C12.7363 15.0095 12.9023 14.4201 12.9023 14.4201C13.1035 13.5999 13.3906 12.8709 13.3906 11.4203Z" fill="white"/>
<path d="M5.2249 12.7882V12.1159C5.03889 12.1207 4.85635 12.0651 4.70475 11.9573C4.55316 11.8495 4.44072 11.6955 4.38438 11.5183C4.03142 11.3868 3.85644 11.0037 3.74876 10.7482C3.63135 10.4718 3.49899 9.91159 2.74222 9.30281L3.72557 9.22364C3.72557 9.22364 3.63808 8.6649 3.84672 8.33325L2.6652 8.70673C2.44086 8.78143 2.2913 8.83969 2.16642 8.9988C2.02285 9.19749 2.09164 9.42158 2.22251 9.565C3.93645 11.4481 4.11667 12.0524 4.11667 12.0524C4.21146 12.2682 4.36629 12.4522 4.56275 12.5826C4.75921 12.7131 4.98903 12.7844 5.2249 12.7882Z" fill="white"/>
<path d="M20.5641 13.2077H19.915V4.36963H19.2779L19.2069 11.4658C19.2069 12.0006 19.168 12.3988 19.0887 12.6609C19.0095 12.9231 18.9122 13.0852 18.7941 13.1442C18.6759 13.2032 18.495 13.2324 18.2512 13.2324L18.0859 13.2204V12.6079H18.1689C18.3419 12.6079 18.4578 12.5392 18.5167 12.4017C18.5755 12.2643 18.6089 11.9127 18.6169 11.347L18.7096 3.78027H20.5641V13.2077Z" fill="#3769F5"/>
<path d="M22.9446 9.64918H22.3463L22.122 13.2077H21.5088L22.1818 3.78027H23.1218L23.818 13.2077H23.1689L22.9446 9.64918ZM22.9094 9.05982L22.7329 6.24302L22.6746 4.61687H22.6155L22.5564 6.24302L22.3792 9.05982H22.9094Z" fill="#3769F5"/>
<path d="M26.8024 3.78027V13.2077H26.1541V8.24638H25.4108V13.2077H24.7617V3.78027H25.4108V7.61893H26.1541V3.78027H26.8024Z" fill="#3769F5"/>
<path d="M29.7288 7.35077C29.9097 7.54747 30.0002 7.89331 30.0002 8.3883V11.8176C30.0002 12.336 29.9097 12.6973 29.7288 12.9015C29.5478 13.1056 29.2921 13.2077 28.9615 13.2077H28.0298V3.78027H28.6789V7.05646H28.9615C29.2921 7.05646 29.5478 7.15457 29.7288 7.35077ZM29.3511 8.36589C29.3511 7.88684 29.2056 7.64731 28.9144 7.64731H28.6789V12.6206H28.9144C29.0794 12.6206 29.1936 12.5676 29.2569 12.4615C29.3202 12.3554 29.3516 12.1687 29.3511 11.9013V8.36589Z" fill="#3769F5"/>
</g>
<defs>
<clipPath id="clip0_116_2529">
<rect width="30" height="20" fill="white"/>
</clipPath>
</defs>
</svg>
